<?xml version="1.0" encoding="utf-8"?>
<!-- Generator: Adobe Illustrator 26.5.0, SVG Export Plug-In . SVG Version: 6.00 Build 0)  -->
<svg version="1.1" id="Layer_1" xmlns="http://www.w3.org/2000/svg" xmlns:xlink="http://www.w3.org/1999/xlink" x="0px" y="0px"
	 viewBox="0 0 540 540" style="enable-background:new 0 0 540 540;" xml:space="preserve">
<style type="text/css">
	.st0{fill:#758AF2;}
	.st1{fill:#7F92EF;}
	.st2{fill:#4A1434;}
	.st3{fill:#C7D0F9;}
	.st4{fill:#6375F0;}
</style>
<g>
	<g>
		<path class="st0" d="M289.6,194.9v128.8c0,0,179.6,110.8,179.8,107.8c0.2-2.9-1.2-131.1-4.1-132.9
			C462.4,296.8,299.9,189.5,289.6,194.9z"/>
	</g>
	<g>
		<path class="st0" d="M174.9,391.6c0,0,107.1-74.6,117.3-70.5c10.3,4.1,127.2,64.1,125,70.5c-2.2,6.4-134.5,83.2-136.3,81.8
			C279.2,472.1,174.9,391.6,174.9,391.6z"/>
	</g>
	<g>
		<polygon class="st1" points="109.8,432 112.2,298.6 289.6,407.6 289.6,537.5 		"/>
	</g>
	<g>
		<path class="st1" d="M465.3,298.6c0,0,5.8,125.3,4.1,132.9c-1.7,7.6-173.2,111.3-179.8,106.1c-6.6-5.2-3.1-129.8-3.1-129.8
			L465.3,298.6z"/>
	</g>
	<g>
		<path class="st0" d="M112.1,300.9c0-2.3,174.8-109.6,177.4-106.1c2.7,3.5,0,128.8,0,128.8s-98.8,51.8-98.4,49.9
			C191.6,371.1,112.1,300.9,112.1,300.9z"/>
	</g>
	<g>
		<path class="st1" d="M113.8,299.6c0,0-70.6-79.9-72.1-83.7c-1.6-4,0-6.5,0-6.5s160.8-91.4,174.2-90.2
			c13.4,1.2,71.1,71.7,70.5,76.9L113.8,299.6z"/>
		<path class="st2" d="M113.6,300.8l-0.5-0.6c-7.2-8.2-70.8-80.2-72.3-84c-1.7-4.4,0-7.3,0.1-7.4l0.1-0.2l0.2-0.1
			c6.6-3.7,161.3-91.6,174.8-90.4c11.4,1,47.4,44.5,51.5,49.5c4.8,5.8,20.3,25.1,19.9,28.5l-0.1,0.5l-0.4,0.3L113.6,300.8z
			 M42.4,210c-0.3,0.6-0.9,2.6,0.2,5.4c1.3,3,43.2,50.9,71.4,82.8l171.4-102.8c-2.5-7.4-56.5-74.3-69.5-75.4
			C205.5,119.2,98,178.4,42.4,210z"/>
	</g>
	<g>
		<path class="st1" d="M289.6,194.9c0,0,58.6-71.7,68.5-75.8c9.9-4.1,163.8,96.2,166.1,102.6c0,0,0.6,3.5,0,7.6
			c-0.6,4.1-57.1,69.3-58.9,69.3S289.6,194.9,289.6,194.9z"/>
		<path class="st2" d="M465.3,299.6c-1.8,0-111.2-65.1-176.3-103.9l-1-0.6l0.7-0.9c2.4-2.9,58.9-71.9,68.9-76.1
			c0.9-0.4,2.9-0.5,9.4,2.4c33.7,14.9,155.6,94.2,158,100.7c0.1,0.3,0.6,3.9,0.1,8.1c-0.4,2.7-18.5,24.2-29.2,36.7
			C482.9,281.4,466.9,299.6,465.3,299.6z M291.1,194.6c58.2,34.7,166.3,98.9,174.2,102.9c5.1-4.4,56.7-63.7,58-68.4
			c0.5-3.4,0.1-6.4,0-7.1c-1.9-3.1-36.3-27.1-80.2-55c-54-34.2-81.4-48.3-84.5-47C350.9,123.1,311.5,169.6,291.1,194.6z"/>
	</g>
	<g>
		<path class="st0" d="M289.6,407.6c0,0,59.8,4.7,65.6,0c5.8-4.7,163.8-97.9,165.5-101.4c1.7-3.5,1.2-8.2-4.1-7.6
			c-5.2,0.6-51.3,0-51.3,0S289.8,402.3,289.6,407.6z"/>
		<path class="st2" d="M335,410.6c-18,0-41.5-1.8-45.5-2.1l-1-0.1l0-1c0.1-1.2,0.2-3.8,88.4-57.3c43.4-26.3,87.4-52.3,87.8-52.5
			l0.2-0.1l0.3,0c0.5,0,46,0.6,51.2,0c3-0.3,4.4,0.8,5.2,1.9c1.2,1.8,1.2,4.6-0.1,7.1c-1,2-31.4,20.5-103.8,64
			c-32,19.2-59.6,35.8-61.9,37.7C353.7,410.1,345.2,410.6,335,410.6z M291.6,406.7c23.9,1.8,59,3.2,63,0.1
			c2.4-1.9,30.1-18.6,62.2-37.8c42.6-25.6,100.9-60.6,103.1-63.3c0.9-1.8,1-3.8,0.2-5c-0.6-0.9-1.7-1.2-3.3-1
			c-5.1,0.6-46.9,0.1-51.1,0C399.9,338.4,303.1,396.8,291.6,406.7z"/>
	</g>
	<g>
		<path class="st1" d="M119.9,296.5c0,0-55.5,1.4-60.2,2c-4.7,0.6-5.2,4.1-4.7,7c0.6,2.9,165.5,102.6,170.8,104.1
			c5.2,1.4,63.8-2.1,63.8-2.1L119.9,296.5z"/>
		<path class="st2" d="M232.6,411c-3.6,0-6.1-0.1-7.1-0.4c-3.2-0.9-54-31.3-87.4-51.6c-83.6-50.7-84-52.6-84.1-53.2
			c-0.3-1.6-0.4-3.9,0.9-5.7c1-1.4,2.5-2.2,4.6-2.5c4.7-0.6,58-1.9,60.3-2l0.3,0l0.3,0.2l172.2,112.7l-3,0.2
			C287.7,408.7,249.2,411,232.6,411z M56,305.2c5.4,5.3,163.9,101.7,170.1,103.5c3.9,1.1,42.4-0.9,60.4-1.9L119.6,297.6
			c-4.5,0.1-55.4,1.4-59.8,2c-1.5,0.2-2.6,0.8-3.3,1.7C55.8,302.4,55.8,304,56,305.2z"/>
	</g>
	<g>
		<g>
			<path class="st2" d="M56.9,301.6c9.2,4.9,18.1,10.8,27,16.1c19,11.4,38.1,22.9,57.1,34.3c19.2,11.5,38.5,23.1,57.7,34.6
				c6.7,4,13.3,8,20,12c3,1.8,6.1,4.1,9.3,5.5c1.4,0.6,3.3,0.2,4.8,0.2c4.8-0.2,9.6-0.3,14.4-0.5c9.9-0.3,19.7-0.6,29.6-0.9
				c0.7,0,1.3,0,2-0.1c1.6,0,1.6-2.5,0-2.5c-7.7,0.2-15.3,0.5-23,0.7c-5.6,0.2-11.1,0.3-16.7,0.5c-2.1,0.1-4.2,0.1-6.3,0.2
				c-1,0-2.5-0.2-3.5,0.1c-0.7,0.2,0.4,0.5-0.1,0c-0.3-0.3-0.8-0.5-1.2-0.7c-1.6-1-3.3-1.9-4.9-2.9c-6-3.6-12-7.2-18-10.8
				c-18.6-11.2-37.2-22.3-55.8-33.5c-19.5-11.7-39-23.4-58.5-35.1c-10.6-6.4-21.1-13-31.9-19.1c-0.2-0.1-0.5-0.3-0.7-0.4
				C56.8,298.7,55.5,300.8,56.9,301.6L56.9,301.6z"/>
		</g>
	</g>
	<g>
		<g>
			<path class="st2" d="M226.9,409.6c0.7-2,1.5-4.1,2.2-6.1c0.2-0.6-0.2-1.4-0.9-1.5c-0.7-0.2-1.3,0.2-1.5,0.9
				c-0.7,2-1.5,4.1-2.2,6.1c-0.2,0.6,0.3,1.4,0.9,1.5C226.1,410.7,226.7,410.3,226.9,409.6L226.9,409.6z"/>
		</g>
	</g>
	<g>
		<g>
			<path class="st2" d="M296.1,403.8c10.4,0.7,20.8,1.2,31.3,1.3c5.1,0,10.1,0,15.2-0.1c2.1,0,5.1,0.4,7.1-0.4
				c2.3-0.9,4.5-2.7,6.6-4c12.3-7.5,24.6-14.9,37-22.4c17.4-10.6,34.9-21.1,52.3-31.7c16-9.7,32-19.4,48.1-29.1
				c5.4-3.3,10.9-6.6,16.3-9.9c2.6-1.6,5.3-3,7.8-4.7c0.1-0.1,0.2-0.1,0.4-0.2c1.4-0.8,0.1-3-1.3-2.2c-6.5,4-13.1,7.9-19.6,11.9
				c-15.3,9.3-30.6,18.5-45.8,27.8c-17.6,10.6-35.1,21.3-52.7,31.9c-13.4,8.1-26.8,16.3-40.3,24.4c-3.1,1.9-6.2,3.7-9.2,5.6
				c-0.2,0.1-0.5,0.4-0.8,0.5c0,0-0.1,0.1-0.1,0.1c-0.4,0.1-1.3-0.1-1.8-0.1c-1.5,0-2.9,0.1-4.4,0.1c-10.3,0.2-20.6,0.1-30.8-0.3
				c-5.1-0.2-10.1-0.5-15.1-0.9C294.5,401.2,294.5,403.7,296.1,403.8L296.1,403.8z"/>
		</g>
	</g>
	<g>
		<g>
			<path class="st2" d="M43.5,209.1c2.4,3.5,5.5,6.6,8.2,9.9c5.7,6.7,11.5,13.5,17.2,20.2c12.9,15,25.8,30,38.8,45
				c3.4,3.9,6.7,7.9,10.2,11.7c1.1,1.2,2.8-0.6,1.8-1.8c-8.7-9.7-17.1-19.7-25.6-29.5c-12.9-14.9-25.8-29.9-38.6-44.9
				c-3.2-3.8-7.3-8.2-9.9-11.8C44.7,206.6,42.6,207.8,43.5,209.1L43.5,209.1z"/>
		</g>
	</g>
	<g>
		<g>
			<path class="st2" d="M459.8,295.3c20-24.8,40.9-48.8,62.8-71.9c1.1-1.2-0.7-2.9-1.8-1.8c-21.9,23.1-42.9,47.1-62.8,71.9
				C457.1,294.8,458.8,296.6,459.8,295.3L459.8,295.3z"/>
		</g>
	</g>
	<g>
		<g>
			<path class="st2" d="M218.5,361.7c24.2-13.2,48.4-26.4,72.6-39.6c1.4-0.8,0.2-2.9-1.3-2.2c-24.2,13.2-48.4,26.4-72.6,39.6
				C215.8,360.3,217.1,362.5,218.5,361.7L218.5,361.7z"/>
		</g>
	</g>
	<g>
		<g>
			<path class="st2" d="M289.8,322c23.8,12.2,47,25.6,70.9,37.9c1.4,0.7,2.7-1.4,1.3-2.2c-23.8-12.2-47-25.6-70.9-37.9
				C289.6,319.2,288.4,321.3,289.8,322L289.8,322z"/>
		</g>
	</g>
	<g>
		<g>
			<path class="st2" d="M291.3,321.9c1.5-33,1.2-66-1-98.9c-0.6-9.3-1.4-18.7-2.3-28c-0.2-1.6-2.7-1.6-2.5,0
				c3.2,32.8,4.6,65.8,4.2,98.8c-0.1,9.4-0.4,18.7-0.8,28C288.7,323.5,291.2,323.5,291.3,321.9L291.3,321.9z"/>
		</g>
	</g>
	<g>
		<g>
			<path class="st2" d="M291.4,538.8c0-34.4-0.3-68.8-0.5-103.2c0-9.3-0.1-18.7-0.1-28c0-1.6-2.5-1.6-2.5,0
				c0,34.4,0.3,68.8,0.5,103.2c0,9.3,0.1,18.7,0.1,28C288.9,540.4,291.4,540.4,291.4,538.8L291.4,538.8z"/>
		</g>
	</g>
	<g>
		<g>
			<path class="st2" d="M348.5,404.1c0.7,1.8,1.8,3.5,3.3,4.7c0.3,0.2,0.5,0.4,0.9,0.4c0.3,0,0.7-0.1,0.9-0.4c0.4-0.5,0.5-1.3,0-1.8
				c-0.3-0.3-0.6-0.5-0.9-0.8c-0.1-0.1-0.3-0.3-0.4-0.4c-0.1-0.1-0.1-0.2-0.2-0.2c0,0-0.1-0.2,0,0c0.1,0.2,0,0,0,0
				c-0.5-0.6-0.9-1.3-1.2-2.1c0,0.1,0.1,0.2,0.1,0.3c0-0.1-0.1-0.2-0.1-0.3c-0.1-0.3-0.3-0.6-0.6-0.7c-0.3-0.2-0.7-0.2-1-0.1
				C348.8,402.7,348.2,403.4,348.5,404.1L348.5,404.1z"/>
		</g>
	</g>
	<g>
		<g>
			<path class="st2" d="M158.8,234c14.8-24.4,28.3-49.6,40.6-75.4c0.7-1.4-1.5-2.7-2.2-1.3c-12.2,25.8-25.8,51-40.6,75.4
				C155.8,234.1,158,235.4,158.8,234L158.8,234z"/>
		</g>
	</g>
	<g>
		<g>
			<path class="st2" d="M178.2,218.1c3.3-4.7,6.7-9.4,10-14.1c0.4-0.5,0.1-1.4-0.4-1.7c-0.6-0.4-1.3-0.1-1.7,0.4
				c-3.3,4.7-6.7,9.4-10,14.1c-0.4,0.5-0.1,1.4,0.4,1.7C177.1,218.9,177.8,218.6,178.2,218.1L178.2,218.1z"/>
		</g>
	</g>
	<g>
		<path class="st3" d="M118.8,395.3c0,0-1.4,27.4,0,30.9c1.4,3.5,36.7,24.5,37.9,20.9c1.2-3.7,2.5-25.4,0.8-28.9
			C155.7,414.6,119,391.5,118.8,395.3z"/>
	</g>
	<g>
		<path class="st3" d="M267.3,473.9c0.6-0.6,1.5-0.5,2,0.2c2.4,3.7,7.5,13,5.6,12.8c-2.3-0.2-3.4-1.3-3.4-1.3s-0.6,18.1-1.1,18.1
			c-1.6,0-5-2-5.4-3.6c-0.5-1.6,0-17.4,0-17.4s-3.4-1.1-3.2-2.3C261.9,479.6,265.4,475.8,267.3,473.9z"/>
	</g>
	<g>
		<path class="st3" d="M252.4,466.4c0.6-0.6,1.5-0.5,2,0.2c2.4,3.7,7.5,13,5.6,12.8c-2.3-0.2-3.4-1.3-3.4-1.3s-0.6,18.1-1.1,18.1
			c-1.6,0-5-2-5.4-3.6c-0.5-1.6,0-17.4,0-17.4s-3.4-1.1-3.2-2.3C247.1,472.1,250.6,468.3,252.4,466.4z"/>
	</g>
	<g>
		<path class="st3" d="M273,509.8c0,0-0.4,5-1.1,5.4c-0.7,0.5-25.3-15-25.3-15c-0.8-1.8-0.4-3.8-0.1-5.8
			C246.9,492.9,271.9,507.7,273,509.8z"/>
	</g>
	<g>
		<path class="st3" d="M236.9,476.4c0.5-0.3,3.2-14.9-8-23.3c-11.3-8.5-15.5,10.5-14.8,11.7C214.7,465.9,234.3,478,236.9,476.4z"/>
	</g>
	<g>
		<g>
			<path class="st3" d="M229,486.3c-1.2,1.4-3,0-3.9-1.1c-1-1.2-1.1-2.8-1-4.3c0.1-4.1,0.8-8.3,1.8-12.2c0.5-1.8-2.3-2.5-2.7-0.8
				c-0.7,2.6-1.1,5.2-1.4,7.8c-0.3,2.3-0.7,4.8-0.4,7.2c0.2,2.2,1.3,4,3,5.4c1.9,1.6,4.9,2,6.7-0.1
				C232.1,486.9,230.1,484.9,229,486.3L229,486.3z"/>
		</g>
	</g>
	<g>
		<g>
			<path class="st2" d="M381.2,185.2c3.5,12.8,9,25,16.4,36.1c0.9,1.3,3,0.1,2.2-1.3c-7.2-10.9-12.7-22.8-16.1-35.5
				C383.2,183,380.8,183.6,381.2,185.2L381.2,185.2z"/>
		</g>
	</g>
	<g>
		<g>
			<path class="st2" d="M270.4,394.6c21.8-13.5,43.9-26.7,65.9-40c2.2-1.3,4.4-2.6,6.5-3.9c1.4-0.8,0.1-3-1.3-2.2
				c-18.1,10.9-36.3,21.9-54.3,32.9c-6,3.7-12.1,7.4-18.1,11.1C267.8,393.3,269,395.4,270.4,394.6L270.4,394.6z"/>
		</g>
	</g>
	<g>
		<g>
			<path class="st2" d="M210.2,327.8c11.2-15.9,21.3-32.6,30.1-50c0.7-1.4-1.4-2.7-2.2-1.3c-8.9,17.4-18.9,34.1-30.1,50
				C207.1,327.9,209.3,329.1,210.2,327.8L210.2,327.8z"/>
		</g>
	</g>
</g>
<g>
	<g>
		<g>
			<path class="st3" d="M46.1,97.2c0.8-14,8-26.9,19.6-37.9c14.2-13.4,35-20.5,54.1-16.2c19,4.4,35,19.2,42.1,37.4
				c7.1,17.9,4.6,42.1-8.8,57.9c0,0,11,21.9,6.3,24.5c-2,1.9-17-7.9-21.9-12.7l0.1-0.1c-16.2,10.4-38.7,16-62.3,2.8
				C57.7,143.1,44.7,122.7,46.1,97.2z"/>
		</g>
	</g>
	<g>
		<path class="st4" d="M90.1,62.9c0,0,6.4,46.9,11.1,49.7c4.8,2.8,14.9,0.2,15.5-1.3s2.8-52.2,1-52.3C92,57.2,90.1,62.9,90.1,62.9z"
			/>
		<path class="st4" d="M121,126.4c2.7,6.5-0.4,13.9-6.8,16.6c-6.5,2.7-13.9-0.4-16.6-6.8c-2.7-6.5,0.4-13.9,6.8-16.6
			C110.9,116.9,118.3,120,121,126.4z"/>
	</g>
</g>
<g>
	<g>
		<g>
			<path class="st2" d="M219.1,83.9c-5.5-10.4-8.5-21.9-8.8-33.7c-0.6,0.4-1.2,0.7-1.9,1.1c14.1,6.6,28.2,13.2,42.3,19.8
				c0.5,0.3,1.4,0.2,1.7-0.4c9.7-22.7,19.4-45.3,29.1-68c-0.8-0.1-1.5-0.2-2.3-0.3c7.2,23.8,14.3,47.6,21.5,71.4
				c0.2,0.8,1.1,1.1,1.8,0.7c22-10,43-21.8,62.9-35.5c-0.6-0.5-1.2-0.9-1.8-1.4c-4.5,17.4-9,34.8-13.5,52.2c-0.3,1,0.6,1.7,1.5,1.5
				c6.5-1,12.6-2.8,18.7-5.3c6.1-2.5,12.2-4.2,18.7-5.3c1.6-0.3,0.9-2.6-0.7-2.4c-6.5,1-12.6,2.8-18.7,5.3
				c-6.1,2.5-12.2,4.2-18.7,5.3c0.5,0.5,1,1,1.5,1.5c4.5-17.4,9-34.8,13.5-52.2c0.3-1-0.9-2-1.8-1.4c-19.9,13.6-41,25.5-62.9,35.5
				c0.6,0.2,1.2,0.5,1.8,0.7c-7.2-23.8-14.3-47.6-21.5-71.4c-0.3-0.9-1.8-1.3-2.3-0.3c-9.7,22.7-19.4,45.3-29.1,68
				c0.6-0.1,1.1-0.3,1.7-0.4c-14.1-6.6-28.2-13.2-42.3-19.8c-0.8-0.4-1.9,0.1-1.9,1.1c0.3,12.2,3.4,24.1,9.1,34.9
				C217.7,86.6,219.8,85.3,219.1,83.9L219.1,83.9z"/>
		</g>
	</g>
	<g>
		<g>
			<path class="st2" d="M400,75.1c-0.4-0.1-0.8-0.1-1.1-0.2c-0.2-0.1-0.3-0.1-0.5,0c-0.2,0-0.3,0.1-0.5,0.1
				c-0.1,0.1-0.3,0.2-0.3,0.3c-0.1,0.1-0.2,0.3-0.2,0.4c0,0.1,0,0.2,0,0.3c0,0.2,0.1,0.4,0.2,0.6c0.1,0.1,0.1,0.2,0.2,0.3
				c0.2,0.2,0.3,0.3,0.5,0.3c0.4,0.1,0.8,0.1,1.1,0.2c0.2,0.1,0.3,0.1,0.5,0c0.2,0,0.3-0.1,0.5-0.1c0.1-0.1,0.3-0.2,0.3-0.3
				c0.1-0.1,0.2-0.3,0.2-0.4c0-0.1,0-0.2,0-0.3c0-0.2-0.1-0.4-0.2-0.6c-0.1-0.1-0.1-0.2-0.2-0.3C400.4,75.2,400.2,75.1,400,75.1
				L400,75.1z"/>
		</g>
	</g>
</g>
<rect x="-415" y="-139.6" class="st1" width="143.8" height="143.8"/>
</svg>
